<?xml version="1.0" encoding="UTF-8"?><svg id="a" xmlns="http://www.w3.org/2000/svg" viewBox="0 0 400 400"><path d="M206.04,240.52c0,50-42.01,71.46-86.74,71.46H0V65.87H116.04c42.15,0,78.68,11.94,78.68,60.97,0,24.86-11.53,40.83-33.61,51.39,30.28,8.54,44.93,31.39,44.93,62.29ZM54.1,165.31h54.86c19.3,0,32.99-8.4,32.99-29.31,0-22.64-17.57-28.12-37.09-28.12H54.1v57.43Zm97.85,72.22c0-25.21-15.07-35.14-38.89-35.14H54.1v67.78h57.85c22.02,0,40-7.78,40-32.64Zm247.64-2.92h-128.54c0,28.54,15.07,45.35,43.75,45.35,14.86,0,34.03-8.06,38.68-23.26h43.2c-13.27,40.76-40.84,59.93-83.4,59.93-56.25,0-91.18-38.06-91.18-93.54s36.88-94.31,91.18-94.31,86.74,43.96,86.74,96.67c0,3.13-.21,6.25-.42,9.17Zm-38.68-155.83h-99.79v24.24h99.79v-24.24Zm-10.14,125c-2.08-23.61-14.45-38.06-39.03-38.06s-39.03,14.65-40.62,38.06h79.65Z"/></svg>