<?xml version="1.0" encoding="UTF-8"?><svg id="a" xmlns="http://www.w3.org/2000/svg" viewBox="0 0 400 400"><path d="M400,139.05v121.88c0,5.58-2.9,11.16-7.59,14.28l-182.81,121.9c-6.3,3.87-12.96,3.84-19.2,0L7.59,275.21c-4.69-3.12-7.59-8.7-7.59-14.28v-121.88c0-5.58,2.9-11.16,7.59-14.28L190.4,2.89c6.3-3.88,12.96-3.84,19.2,0l182.81,121.88c4.69,3.12,7.59,8.7,7.59,14.28ZM34.38,228.79l43.08-28.79-43.08-28.79v57.59Zm13.84-89.73l60.04,40.18,74.56-49.78V49.32L48.21,139.05Zm134.6,131.48l-74.56-49.78-60.04,40.18,134.6,89.73v-80.13Zm77.9-70.54l-60.71-40.63-60.71,40.63,60.71,40.62,60.71-40.62Zm-43.53-70.54l74.56,49.78,60.04-40.18L217.19,49.32v80.14Zm134.6,131.47l-60.04-40.18-74.56,49.78v80.13l134.6-89.73Zm13.84-89.73l-43.08,28.79,43.08,28.79v-57.59Z"/></svg>