<?xml version="1.0" encoding="UTF-8"?><svg id="a" xmlns="http://www.w3.org/2000/svg" viewBox="0 0 400 400"><path d="M349.43,227.44c-12.09-9.78-29.66-5.67-32.24,5.04s-7.55,17.82-9.56,20.72c-7.32,10.56-14.54,21.2-22.27,31.44-11.12,14.73-23.94,27.83-39.39,38.15-22.83,15.26-47.59,23.14-75.3,19.26-15.57-2.18-29.27-8.52-40.75-19.35-11.07-10.45-17.85-23.47-22.34-37.8-4.15-13.26-5.89-26.91-6.81-40.74-1.03-15.46-.18-30.81,1.88-46.1,3.03-22.4,9.08-44,18.07-64.76,6.63-15.32,14.23-30.08,24.8-43.12,9.31-11.49,20.31-20.86,34.25-26.34,12.92-5.08,26.17-7,39.83-3.36,18.55,4.94,28.06,19.55,25.41,38.46-1.08,7.68-3.36,15-5.75,22.32-2.31,7.09-4.47,14.21-5.23,21.69-.8,7.93,.68,15.36,4.89,22.13,5.91,9.49,16.06,12.36,26.2,8.09,7.54-3.17,12.81-8.84,16.53-16.02,3.23-6.24,5.2-12.92,6.72-19.73,6.94-31.04,18.53-60.21,35-87.45,2.46-4.07,4.51-8.4,6.49-12.73,2.22-4.88,2.98-10.06,2.68-15.45-.69-12.27-11.29-22.36-23.56-21.78-8.16,.38-14.99,3.6-19.8,10.32-1.78,2.49-3.33,5.14-5.15,7.59-1.67,2.25-3.38,4.53-5.41,6.45-3.38,3.2-7.49,4.28-12.18,3.64-5.25-.72-9.76-3.14-14.21-5.67-20.2-11.47-41.96-14.23-64.58-11.16-17.96,2.44-34.38,9.29-49.51,19.22-17.42,11.44-31.97,25.87-43.89,42.85-29.56,42.13-46.68,88.67-49,140.34-.11,2.38-.09,27.45,.07,30.08,.89,14.65,2.32,29.24,5.37,43.61,4.93,23.18,13.24,45.01,26.79,64.6,10.61,15.34,23.92,27.82,40.81,36.09,11.5,5.63,23.73,9.03,36.43,10.61,5.57,.69,11.19,1.3,16.79,1.38,20.99,.32,40.95-4.3,60.07-12.89,18.16-8.16,34.1-19.6,49.14-32.46,29.09-24.87,50.95-54.96,65.75-90.21,.83-1.98,1.77-3.97,2.94-5.78,0,0,12.09-21.43,0-31.21Z"/></svg>