<?xml version="1.0" encoding="UTF-8"?><svg id="a" xmlns="http://www.w3.org/2000/svg" viewBox="0 0 400 400"><path d="M399.94,200c0,110.25-89.69,199.94-199.94,199.94S.06,310.25,.06,200,89.75,.06,200,.06s199.94,89.69,199.94,199.94ZM73.13,314.45c27.68-47.39,83.79-97.33,145.54-114.73-4.29-9.7-8.96-19.42-13.85-28.98-85.28,25.52-168.04,24.46-175.51,24.3-.05,1.73-.09,3.47-.09,5.22,0,43.86,16.63,83.91,43.9,114.19ZM32.83,165.28c7.64,.1,78,.41,157.88-20.81-28.3-50.3-58.81-92.59-63.32-98.77-47.78,22.54-83.49,66.58-94.56,119.57Zm233.88,192.18c-2.54-14.98-12.46-67.2-36.43-129.51-68.85,23.49-117.26,70.56-135.1,107.03,50.59,39.45,116.62,45.87,171.53,22.48ZM159.98,34.23c4.72,6.32,35.74,48.56,63.72,99.98,60.73-22.76,86.43-57.31,89.5-61.69-42-37.26-99.07-51.34-153.23-38.29Zm76.85,125.37c5.99,12.27,10.37,22.23,15.01,33.55,56.82-7.15,113.29,4.31,118.92,5.5-.37-40.31-14.78-77.32-38.56-106.38-3.6,4.87-32.22,41.56-95.36,67.34Zm131.79,67.77c-5.84-1.85-52.86-15.87-106.38-7.3,22.34,61.38,31.43,111.38,33.18,121.76,38.31-25.91,65.59-66.95,73.2-114.46Z"/></svg>