<?xml version="1.0" encoding="UTF-8"?><svg id="a" xmlns="http://www.w3.org/2000/svg" viewBox="0 0 400 400"><path d="M193.68,322.8c-42.38-2.59-82.96-28.48-102.68-66.31-18.31-35.11-18.02-79.21,.69-114.05,20.95-39,62.5-62.78,108.49-64.82,0,0,11.43-.73,19.06-5.06,22.63-12.84,26.01-50.75,1.69-66.23-6.55-4.17-14.36-6.1-22.16-6.07C121.94,.99,47.64,48.95,16.4,120.09c-26.25,59.8-20.79,132.32,14.87,187.77,28.38,44.13,74.66,76.4,126.01,87.55,70.26,15.27,148.09-10.68,195.06-65.41,46.57-54.27,60.8-134.48,34.72-201.82-14.95-38.61-41.45-73.81-76.89-94.99-1.85-1.11-3.79-2.02-5.79-2.74,35.66,30.5,58.27,75.76,58.27,126.24,0,91.75-74.68,166.24-166.68,166.24-.75,0-.83-.04-2.28-.12Z"/></svg>