<?xml version="1.0" encoding="UTF-8"?><svg id="a" xmlns="http://www.w3.org/2000/svg" xmlns:xlink="http://www.w3.org/1999/xlink" viewBox="0 0 400 400"><defs><style>.m{mask:url(#h);}.n{fill:#fff;}.n,.o{fill-rule:evenodd;}</style><mask id="h" x="86.74" width="226.52" height="399.74" maskUnits="userSpaceOnUse"><g id="i"><path id="j" class="n" d="M186.68,226.52h26.65c22.08,0,39.97-17.9,39.97-39.97V13.32c0-7.36,5.97-13.32,13.32-13.32h33.31c7.36,0,13.32,5.97,13.32,13.32V215.48c0,7.07-2.81,13.85-7.81,18.84l-40.45,40.45c-7.5,7.5-17.66,11.71-28.27,11.71h-73.48c-10.6,0-20.77-4.21-28.27-11.71l-40.45-40.45c-5-5-7.81-11.78-7.81-18.84V13.32c0-7.36,5.97-13.32,13.32-13.32h33.31c7.36,0,13.32,5.97,13.32,13.32V186.55c0,22.08,17.9,39.97,39.97,39.97Zm-86.61,113.26h199.87c7.36,0,13.32,5.97,13.32,13.32v33.31c0,7.36-5.97,13.32-13.32,13.32H100.07c-7.36,0-13.32-5.97-13.32-13.32v-33.31c0-7.36,5.97-13.32,13.32-13.32Z"/></g></mask></defs><g id="b"><g id="c"><g id="d"><g id="e"><path id="f" class="o" d="M186.68,226.52h26.65c22.08,0,39.97-17.9,39.97-39.97V13.32c0-7.36,5.97-13.32,13.32-13.32h33.31c7.36,0,13.32,5.97,13.32,13.32V215.48c0,7.07-2.81,13.85-7.81,18.84l-40.45,40.45c-7.5,7.5-17.66,11.71-28.27,11.71h-73.48c-10.6,0-20.77-4.21-28.27-11.71l-40.45-40.45c-5-5-7.81-11.78-7.81-18.84V13.32c0-7.36,5.97-13.32,13.32-13.32h33.31c7.36,0,13.32,5.97,13.32,13.32V186.55c0,22.08,17.9,39.97,39.97,39.97Zm-86.61,113.26h199.87c7.36,0,13.32,5.97,13.32,13.32v33.31c0,7.36-5.97,13.32-13.32,13.32H100.07c-7.36,0-13.32-5.97-13.32-13.32v-33.31c0-7.36,5.97-13.32,13.32-13.32Z"/></g><g id="g"><g class="m"><g id="k"><rect id="l" x="86.74" width="226.52" height="399.74"/></g></g></g></g></g></g></svg>