<?xml version="1.0" encoding="UTF-8"?><svg id="a" xmlns="http://www.w3.org/2000/svg" viewBox="0 0 400 400"><path d="M0,100c0-27.62,22.38-50,50-50H350c27.58,0,50,22.38,50,50v200c0,27.58-22.42,50-50,50H50c-27.62,0-50-22.42-50-50V100Zm37.5,0v17.27l134.76,110.62c16.1,13.28,39.38,13.28,55.47,0l134.77-110.62v-17.97c0-6.17-5.63-12.5-12.5-12.5H50c-6.91,0-12.5,6.33-12.5,12.5v.7Zm0,65.78v134.22c0,6.88,5.59,12.5,12.5,12.5H350c6.88,0,12.5-5.63,12.5-12.5V165.78l-110.94,91.1c-30,24.61-73.12,24.61-103.83,0L37.5,165.78Z"/></svg>