<?xml version="1.0" encoding="UTF-8"?><svg id="a" xmlns="http://www.w3.org/2000/svg" viewBox="0 0 400 400"><path d="M400,201.77c0,89.44-54.68,165.97-135.32,192.74-10.24,1.85-13.95-4.52-13.95-9.76,0-6.61,.24-40.24,.24-67.42,0-18.95-6.29-31.05-13.71-37.42,45.08-5.08,92.58-11.29,92.58-89.11,0-22.1-7.9-33.23-20.81-47.5,2.1-5.24,8.95-26.78-2.1-54.76-16.86-5.32-55.64,21.77-55.64,21.77-16.13-4.52-33.47-6.85-50.65-6.85s-34.51,2.34-50.64,6.85c0,0-38.79-27.02-55.64-21.77-11.05,27.9-4.19,49.52-2.1,54.76-12.9,14.19-19.03,25.32-19.03,47.5,0,77.58,45.48,84.11,90.56,89.11-5.8,5.32-11.05,14.27-12.9,27.18-11.53,5.32-41.13,14.27-58.79-16.86-11.05-19.19-31.13-20.81-31.13-20.81-19.76-.24-1.29,12.42-1.29,12.42,13.22,6.05,22.42,29.52,22.42,29.52,11.85,36.13,68.31,24.03,68.31,24.03,0,16.94,.24,44.51,.24,49.52s-3.63,11.61-13.95,9.76C56.29,367.74,0,291.21,0,201.77,0,89.92,85.56,5,197.42,5s202.58,84.92,202.58,196.77Z"/></svg>