<?xml version="1.0" encoding="UTF-8"?><svg id="a" xmlns="http://www.w3.org/2000/svg" viewBox="0 0 400 400"><path d="M396.27,280.76c-1.6,31.85-8.87,60.06-32.12,83.3-23.24,23.33-51.46,30.61-83.3,32.11-32.83,1.86-131.21,1.86-164.04,0-31.85-1.6-59.97-8.87-83.3-32.11C10.18,340.82,2.91,312.61,1.4,280.76-.47,247.94-.47,149.55,1.4,116.73c1.6-31.85,8.78-60.06,32.12-83.31C56.85,10.18,85.06,2.91,116.82,1.4,149.64-.47,248.03-.47,280.85,1.4c31.85,1.6,60.06,8.87,83.3,32.12,23.33,23.24,30.61,51.46,32.12,83.3,1.86,32.83,1.86,131.12,0,163.95Zm-34.42-81.97c0-28.92,2.4-91.02-7.98-117.19-7.01-17.48-20.41-30.87-37.79-37.79-26.08-10.29-88.27-7.98-117.19-7.98s-91.02-2.4-117.19,7.98c-17.48,7.01-30.87,20.41-37.79,37.79-10.29,26.08-7.98,88.27-7.98,117.19s-2.39,91.02,7.98,117.19c7.01,17.48,20.41,30.87,37.79,37.79,26.08,10.29,88.27,7.99,117.19,7.99s91.02,2.39,117.19-7.99c17.48-7.01,30.87-20.4,37.79-37.79,10.38-26.08,7.98-88.27,7.98-117.19Zm-61.04,0c0,56.42-45.51,101.94-101.93,101.94s-101.94-45.51-101.94-101.94,45.51-101.93,101.94-101.93,101.93,45.51,101.93,101.93Zm-35.66,0c0-36.55-29.72-66.27-66.27-66.27s-66.27,29.72-66.27,66.27,29.81,66.27,66.27,66.27,66.27-29.72,66.27-66.27Zm39.83-129.88c-13.13,0-23.78,10.65-23.78,23.77s10.56,23.78,23.78,23.78,23.77-10.56,23.77-23.78-10.65-23.77-23.77-23.77Z"/></svg>