<?xml version="1.0" encoding="UTF-8"?><svg id="a" xmlns="http://www.w3.org/2000/svg" viewBox="0 0 400 400"><path d="M353.87,131.51c0,74.77-38.23,157.72-123.34,157.72-20.2,0-45.68-10.1-55.54-28.85-18.27,72.37-16.83,83.19-57.22,138.49-4.17,1.52-2.8,1.85-5.53-1.2-1.44-15.15-3.61-30.05-3.61-45.2,0-49.05,22.6-119.97,33.66-167.58-6.01-12.26-7.7-27.17-7.7-40.63,0-64.11,75.26-73.73,75.26-20.68,0,31.26-21.16,60.59-21.16,90.88,0,20.68,17.07,35.1,37.03,35.1,55.3,0,72.37-79.82,72.37-122.38,0-56.98-40.39-88-94.97-88-63.47,0-112.52,45.68-112.52,110.12,0,31.01,18.99,46.88,18.99,54.34,0,6.25-4.57,28.37-12.5,28.37-19.24,0-50.97-32.06-50.97-88.48C46.13,54.82,127.39,0,209.62,0,285.11,0,353.87,51.93,353.87,131.51Z"/></svg>