<?xml version="1.0" encoding="UTF-8"?><svg id="a" xmlns="http://www.w3.org/2000/svg" viewBox="0 0 400 400"><path d="M39.9,221.49c18.81,6.11,44.11,13.27,57.26,13.55,11.93,.26,25.24-4.66,39.94-14.76,100.33-67.72,152.12-101.95,155.37-102.69,2.29-.52,5.47-1.16,7.62,.74,2.16,1.91,1.94,5.54,1.72,6.51-1.83,7.77-96.07,93.5-101.5,99.13-20.73,21.54-44.3,34.71-7.93,58.67,31.47,20.73,49.78,33.96,82.2,55.22,20.72,13.58,36.96,29.68,58.35,27.72,9.84-.9,20.01-10.16,25.17-37.76,12.21-65.24,36.19-206.58,41.74-264.82,.34-4.85,.13-9.72-.62-14.51-.44-3.87-2.31-7.43-5.24-9.98-4.41-3.58-11.23-4.34-14.27-4.29-13.86,.25-35.11,7.64-137.4,50.19-35.83,14.91-107.43,45.75-214.81,92.53C10.06,183.88,.93,190.66,.1,197.3c-1.6,12.74,16.73,16.7,39.8,24.2Z"/></svg>