<?xml version="1.0" encoding="UTF-8"?><svg id="a" xmlns="http://www.w3.org/2000/svg" viewBox="0 0 400 400"><path d="M374.91,163.96c-34.39,.08-67.93-10.64-95.89-30.66v139.59c-.04,97.74-105.86,158.78-190.49,109.88-84.62-48.9-84.58-171.07,.08-219.91,24.45-14.11,52.91-19.66,80.88-15.79v70.21c-42.8-13.46-84.13,24.45-74.38,68.25,9.74,43.8,63.24,60.63,96.3,30.29,12.03-11.04,18.88-26.62,18.88-42.94V0h68.74c-.05,5.8,.44,11.6,1.45,17.32,4.83,25.79,20.06,48.45,42.11,62.66,15.52,10.26,33.72,15.73,52.33,15.73v68.25Z"/></svg>