<?xml version="1.0" encoding="UTF-8"?><svg id="a" xmlns="http://www.w3.org/2000/svg" viewBox="0 0 400 400"><path d="M399.95,50V350c0,27.5-22.23,49.82-49.73,50H50.04C22.45,400,.04,377.59,.04,350,.04,46.43-.05,50,.04,50,.04,22.41,22.45,0,50.13,0H350.31c27.5,.18,49.73,22.5,49.64,50Zm-223.93,252.95V75.98c0-13.3-10.8-24.02-24.02-24.02H77.99c-13.3,0-24.02,10.8-24.02,24.02v226.96c.09,13.21,10.89,23.84,24.11,23.75h73.84c13.21,0,23.84-10.62,24.02-23.75h.09ZM348.34,76.07c0-13.3-10.8-24.02-24.02-24.02h-72.41c-13.21,0-23.93,10.8-23.93,24.02v126.87c0,13.3,10.8,24.02,24.02,24.02h72.32c13.3,0,24.02-10.8,24.02-24.02V76.07Z"/></svg>