<?xml version="1.0" encoding="UTF-8"?><svg id="a" xmlns="http://www.w3.org/2000/svg" viewBox="0 0 400 400"><path d="M358.88,118.53c.26,3.55,.26,7.11,.26,10.66,0,108.38-82.49,233.25-233.25,233.25-46.45,0-89.6-13.45-125.89-36.8,6.6,.76,12.94,1.01,19.8,1.01,38.32,0,73.61-12.94,101.78-35.02-36.04-.76-66.24-24.37-76.65-56.85,5.07,.76,10.15,1.27,15.48,1.27,7.36,0,14.72-1.02,21.58-2.79-37.56-7.61-65.74-40.61-65.74-80.46v-1.01c10.91,6.09,23.61,9.9,37.06,10.41-22.08-14.72-36.55-39.85-36.55-68.27,0-15.23,4.06-29.19,11.17-41.37,40.36,49.75,101.02,82.23,169.04,85.79-1.27-6.09-2.03-12.44-2.03-18.78,0-45.18,36.55-81.98,81.98-81.98,23.61,0,44.93,9.9,59.9,25.89,18.53-3.55,36.29-10.41,52.03-19.8-6.09,19.04-19.04,35.03-36.04,45.18,16.5-1.78,32.49-6.34,47.21-12.69-11.17,16.24-25.13,30.71-41.12,42.39Z"/></svg>