<?xml version="1.0" encoding="UTF-8"?><svg id="a" xmlns="http://www.w3.org/2000/svg" viewBox="0 0 400 400"><path d="M400,198.3c0,109.29-90.89,198.21-200.09,198.21h-.09c-33.22,0-65.8-8.3-94.73-24.1L0,400l28.12-102.68C10.8,267.23,1.7,233.12,1.7,198.21,1.7,88.93,90.62,0,199.91,0,252.86,0,302.68,20.62,340.09,58.13c37.41,37.5,59.91,87.23,59.91,140.18Zm-33.81,0c.09-43.93-18.98-85.19-49.99-116.29-31.01-31.1-72.27-48.21-116.2-48.21-90.72,0-164.5,73.78-164.5,164.41,0,31.1,8.64,61.31,25.13,87.51l3.92,6.24-16.57,60.68,62.2-16.31,5.97,3.56c25.22,14.97,54.18,22.9,83.77,22.9,90.63,0,166.28-73.78,166.28-164.5Z"/><path d="M287.16,237.31c-1.3-2.43-3.85-3.65-7.37-5.33-.6-.29-1.23-.59-1.86-.89-3.54-1.8-24.92-12.33-29.03-13.78-3.26-1.21-8.71-3.25-13.02,3.28-2.46,3.72-9.65,12.23-13.1,16.21-1.2,1.39-2.04,2.09-5.48,.34-24.15-12.07-39.97-21.39-55.96-48.84-1.22-2.09-1.26-2.17,2.04-5.63,2.64-2.76,6.62-6.93,10.41-14.51,2.04-4.18,.75-7.71-.39-10.01-.7-1.39-5.38-12.8-8.8-21.12-1.58-3.84-3.04-7.41-4.08-9.91-3.46-8.31-7.61-9.03-11.23-9.03h-.04c-.28,0-.54,0-.79-.01-2.52-.16-5.42-.16-8.22-.16-2.31,0-8.23,.6-13.43,6.21-.25,.27-.52,.57-.82,.89-4.39,4.7-14.66,15.71-14.66,36.22,0,18.39,10.98,36.1,17.52,45.02l.21,.29c.13,.18,.38,.53,.73,1.03,12.03,17.21,37.43,48.33,72.31,63.42,20.33,8.78,31.53,11.59,41.74,11.59,3.46,0,6.81-.32,10.37-.85,8.54-1.28,26.7-10.59,30.72-21.97,3.19-9.01,4.17-19.02,2.22-22.46Z"/></svg>